<svg xmlns="http://www.w3.org/2000/svg" width="1360" height="880" viewBox="0 0 1360 880" font-family="-apple-system,Segoe UI,Roboto,Helvetica,Arial,sans-serif">
<rect width="1360" height="880" fill="#fcfcfb"/>
<text x="24" y="40" font-size="22" font-weight="700" fill="#0b0b0b">ChronoGPT-Instruct SFT replication — validation loss across the vintage sweep</text>
<text x="24" y="65" font-size="14" fill="#52514e">6 chronologically-consistent vintages · 3-stage curriculum · seed 123 · block 1792 · all runs converged, none failed</text>
<text x="24" y="96" font-size="12.5" font-weight="600" fill="#52514e">cutoff year:</text>
<line x1="116" y1="92" x2="138" y2="92" stroke="#86b6ef" stroke-width="3"/>
<circle cx="127" cy="92" r="3.4" fill="#86b6ef"/>
<text x="145" y="96" font-size="12.5" fill="#0b0b0b">1999</text>
<line x1="208" y1="92" x2="230" y2="92" stroke="#5598e7" stroke-width="3"/>
<circle cx="219" cy="92" r="3.4" fill="#5598e7"/>
<text x="237" y="96" font-size="12.5" fill="#0b0b0b">2005</text>
<line x1="300" y1="92" x2="322" y2="92" stroke="#3987e5" stroke-width="3"/>
<circle cx="311" cy="92" r="3.4" fill="#3987e5"/>
<text x="329" y="96" font-size="12.5" fill="#0b0b0b">2010</text>
<line x1="392" y1="92" x2="414" y2="92" stroke="#256abf" stroke-width="3"/>
<circle cx="403" cy="92" r="3.4" fill="#256abf"/>
<text x="421" y="96" font-size="12.5" fill="#0b0b0b">2015</text>
<line x1="484" y1="92" x2="506" y2="92" stroke="#1c5cab" stroke-width="3"/>
<circle cx="495" cy="92" r="3.4" fill="#1c5cab"/>
<text x="513" y="96" font-size="12.5" fill="#0b0b0b">2020</text>
<line x1="576" y1="92" x2="598" y2="92" stroke="#0d366b" stroke-width="3"/>
<circle cx="587" cy="92" r="3.4" fill="#0d366b"/>
<text x="605" y="96" font-size="12.5" fill="#0b0b0b">2024</text>
<line x1="60.0" y1="370.0" x2="449.3" y2="370.0" stroke="#e6e6e2" stroke-width="0.8"/>
<text x="52.0" y="374.0" font-size="11" text-anchor="end" fill="#52514e">1.10</text>
<line x1="60.0" y1="357.0" x2="449.3" y2="357.0" stroke="#e6e6e2" stroke-width="0.8"/>
<text x="52.0" y="361.0" font-size="11" text-anchor="end" fill="#52514e">1.20</text>
<line x1="60.0" y1="344.1" x2="449.3" y2="344.1" stroke="#e6e6e2" stroke-width="0.8"/>
<text x="52.0" y="348.1" font-size="11" text-anchor="end" fill="#52514e">1.30</text>
<line x1="60.0" y1="331.1" x2="449.3" y2="331.1" stroke="#e6e6e2" stroke-width="0.8"/>
<text x="52.0" y="335.1" font-size="11" text-anchor="end" fill="#52514e">1.40</text>
<line x1="60.0" y1="318.2" x2="449.3" y2="318.2" stroke="#e6e6e2" stroke-width="0.8"/>
<text x="52.0" y="322.2" font-size="11" text-anchor="end" fill="#52514e">1.50</text>
<line x1="60.0" y1="305.3" x2="449.3" y2="305.3" stroke="#e6e6e2" stroke-width="0.8"/>
<text x="52.0" y="309.3" font-size="11" text-anchor="end" fill="#52514e">1.60</text>
<line x1="60.0" y1="292.3" x2="449.3" y2="292.3" stroke="#e6e6e2" stroke-width="0.8"/>
<text x="52.0" y="296.3" font-size="11" text-anchor="end" fill="#52514e">1.70</text>
<line x1="60.0" y1="279.4" x2="449.3" y2="279.4" stroke="#e6e6e2" stroke-width="0.8"/>
<text x="52.0" y="283.4" font-size="11" text-anchor="end" fill="#52514e">1.80</text>
<line x1="60.0" y1="266.5" x2="449.3" y2="266.5" stroke="#e6e6e2" stroke-width="0.8"/>
<text x="52.0" y="270.5" font-size="11" text-anchor="end" fill="#52514e">1.90</text>
<line x1="60.0" y1="253.5" x2="449.3" y2="253.5" stroke="#e6e6e2" stroke-width="0.8"/>
<text x="52.0" y="257.5" font-size="11" text-anchor="end" fill="#52514e">2.00</text>
<line x1="60.0" y1="240.6" x2="449.3" y2="240.6" stroke="#e6e6e2" stroke-width="0.8"/>
<text x="52.0" y="244.6" font-size="11" text-anchor="end" fill="#52514e">2.10</text>
<line x1="60.0" y1="227.6" x2="449.3" y2="227.6" stroke="#e6e6e2" stroke-width="0.8"/>
<text x="52.0" y="231.6" font-size="11" text-anchor="end" fill="#52514e">2.20</text>
<line x1="60.0" y1="214.7" x2="449.3" y2="214.7" stroke="#e6e6e2" stroke-width="0.8"/>
<text x="52.0" y="218.7" font-size="11" text-anchor="end" fill="#52514e">2.30</text>
<line x1="60.0" y1="201.8" x2="449.3" y2="201.8" stroke="#e6e6e2" stroke-width="0.8"/>
<text x="52.0" y="205.8" font-size="11" text-anchor="end" fill="#52514e">2.40</text>
<line x1="60.0" y1="188.8" x2="449.3" y2="188.8" stroke="#e6e6e2" stroke-width="0.8"/>
<text x="52.0" y="192.8" font-size="11" text-anchor="end" fill="#52514e">2.50</text>
<line x1="60.0" y1="175.9" x2="449.3" y2="175.9" stroke="#e6e6e2" stroke-width="0.8"/>
<text x="52.0" y="179.9" font-size="11" text-anchor="end" fill="#52514e">2.60</text>
<line x1="60.0" y1="163.0" x2="449.3" y2="163.0" stroke="#e6e6e2" stroke-width="0.8"/>
<text x="52.0" y="167.0" font-size="11" text-anchor="end" fill="#52514e">2.70</text>
<line x1="60.0" y1="150.0" x2="449.3" y2="150.0" stroke="#e6e6e2" stroke-width="0.8"/>
<text x="52.0" y="154.0" font-size="11" text-anchor="end" fill="#52514e">2.80</text>
<text x="60.0" y="400.0" font-size="11" text-anchor="middle" fill="#52514e">0</text>
<text x="189.8" y="400.0" font-size="11" text-anchor="middle" fill="#52514e">1</text>
<text x="319.6" y="400.0" font-size="11" text-anchor="middle" fill="#52514e">2</text>
<text x="449.3" y="400.0" font-size="11" text-anchor="middle" fill="#52514e">3</text>
<polyline points="60.0,154.8 189.8,301.7 319.6,321.5 449.3,324.8" fill="none" stroke="#86b6ef" stroke-width="2" stroke-linejoin="round" stroke-linecap="round"/>
<circle cx="449.3" cy="324.8" r="3" fill="#86b6ef"/>
<polyline points="60.0,283.7 189.8,333.7 319.6,352.4 449.3,355.8" fill="none" stroke="#5598e7" stroke-width="2" stroke-linejoin="round" stroke-linecap="round"/>
<circle cx="449.3" cy="355.8" r="3" fill="#5598e7"/>
<polyline points="60.0,272.5 189.8,327.4 319.6,350.9 449.3,355.1" fill="none" stroke="#3987e5" stroke-width="2" stroke-linejoin="round" stroke-linecap="round"/>
<circle cx="449.3" cy="355.1" r="3" fill="#3987e5"/>
<polyline points="60.0,271.0 189.8,316.0 319.6,350.9 449.3,357.5" fill="none" stroke="#256abf" stroke-width="2" stroke-linejoin="round" stroke-linecap="round"/>
<circle cx="449.3" cy="357.5" r="3" fill="#256abf"/>
<polyline points="60.0,275.7 189.8,326.1 319.6,354.9 449.3,360.2" fill="none" stroke="#1c5cab" stroke-width="2" stroke-linejoin="round" stroke-linecap="round"/>
<circle cx="449.3" cy="360.2" r="3" fill="#1c5cab"/>
<polyline points="60.0,292.2 189.8,333.8 319.6,359.8 449.3,365.2" fill="none" stroke="#0d366b" stroke-width="2" stroke-linejoin="round" stroke-linecap="round"/>
<circle cx="449.3" cy="365.2" r="3" fill="#0d366b"/>
<text x="254.7" y="126.0" font-size="14" font-weight="600" text-anchor="middle" fill="#0b0b0b">Stage 1 — scratch</text>
<text x="254.7" y="418.0" font-size="11.5" text-anchor="middle" fill="#52514e">optimizer step</text>
<line x1="495.3" y1="373.2" x2="884.7" y2="373.2" stroke="#e6e6e2" stroke-width="0.8"/>
<text x="487.3" y="377.2" font-size="11" text-anchor="end" fill="#52514e">1.00</text>
<line x1="495.3" y1="359.2" x2="884.7" y2="359.2" stroke="#e6e6e2" stroke-width="0.8"/>
<text x="487.3" y="363.2" font-size="11" text-anchor="end" fill="#52514e">1.10</text>
<line x1="495.3" y1="345.1" x2="884.7" y2="345.1" stroke="#e6e6e2" stroke-width="0.8"/>
<text x="487.3" y="349.1" font-size="11" text-anchor="end" fill="#52514e">1.20</text>
<line x1="495.3" y1="331.1" x2="884.7" y2="331.1" stroke="#e6e6e2" stroke-width="0.8"/>
<text x="487.3" y="335.1" font-size="11" text-anchor="end" fill="#52514e">1.30</text>
<line x1="495.3" y1="317.1" x2="884.7" y2="317.1" stroke="#e6e6e2" stroke-width="0.8"/>
<text x="487.3" y="321.1" font-size="11" text-anchor="end" fill="#52514e">1.40</text>
<line x1="495.3" y1="303.0" x2="884.7" y2="303.0" stroke="#e6e6e2" stroke-width="0.8"/>
<text x="487.3" y="307.0" font-size="11" text-anchor="end" fill="#52514e">1.50</text>
<line x1="495.3" y1="289.0" x2="884.7" y2="289.0" stroke="#e6e6e2" stroke-width="0.8"/>
<text x="487.3" y="293.0" font-size="11" text-anchor="end" fill="#52514e">1.60</text>
<line x1="495.3" y1="275.0" x2="884.7" y2="275.0" stroke="#e6e6e2" stroke-width="0.8"/>
<text x="487.3" y="279.0" font-size="11" text-anchor="end" fill="#52514e">1.70</text>
<line x1="495.3" y1="260.9" x2="884.7" y2="260.9" stroke="#e6e6e2" stroke-width="0.8"/>
<text x="487.3" y="264.9" font-size="11" text-anchor="end" fill="#52514e">1.80</text>
<line x1="495.3" y1="246.9" x2="884.7" y2="246.9" stroke="#e6e6e2" stroke-width="0.8"/>
<text x="487.3" y="250.9" font-size="11" text-anchor="end" fill="#52514e">1.90</text>
<line x1="495.3" y1="232.8" x2="884.7" y2="232.8" stroke="#e6e6e2" stroke-width="0.8"/>
<text x="487.3" y="236.8" font-size="11" text-anchor="end" fill="#52514e">2.00</text>
<line x1="495.3" y1="218.8" x2="884.7" y2="218.8" stroke="#e6e6e2" stroke-width="0.8"/>
<text x="487.3" y="222.8" font-size="11" text-anchor="end" fill="#52514e">2.10</text>
<line x1="495.3" y1="204.8" x2="884.7" y2="204.8" stroke="#e6e6e2" stroke-width="0.8"/>
<text x="487.3" y="208.8" font-size="11" text-anchor="end" fill="#52514e">2.20</text>
<line x1="495.3" y1="190.7" x2="884.7" y2="190.7" stroke="#e6e6e2" stroke-width="0.8"/>
<text x="487.3" y="194.7" font-size="11" text-anchor="end" fill="#52514e">2.30</text>
<line x1="495.3" y1="176.7" x2="884.7" y2="176.7" stroke="#e6e6e2" stroke-width="0.8"/>
<text x="487.3" y="180.7" font-size="11" text-anchor="end" fill="#52514e">2.40</text>
<line x1="495.3" y1="162.7" x2="884.7" y2="162.7" stroke="#e6e6e2" stroke-width="0.8"/>
<text x="487.3" y="166.7" font-size="11" text-anchor="end" fill="#52514e">2.50</text>
<line x1="495.3" y1="148.6" x2="884.7" y2="148.6" stroke="#e6e6e2" stroke-width="0.8"/>
<text x="487.3" y="152.6" font-size="11" text-anchor="end" fill="#52514e">2.60</text>
<text x="495.3" y="400.0" font-size="11" text-anchor="middle" fill="#52514e">0</text>
<text x="680.7" y="400.0" font-size="11" text-anchor="middle" fill="#52514e">100</text>
<text x="866.1" y="400.0" font-size="11" text-anchor="middle" fill="#52514e">200</text>
<polyline points="495.3,154.8 532.4,276.8 569.5,299.7 606.6,310.2 643.7,316.7 680.7,321.2 717.8,324.3 754.9,326.1 792.0,327.8 829.0,328.9 866.1,329.8 884.7,330.0" fill="none" stroke="#86b6ef" stroke-width="2" stroke-linejoin="round" stroke-linecap="round"/>
<circle cx="884.7" cy="330.0" r="3" fill="#86b6ef"/>
<polyline points="495.3,207.7 532.4,310.1 569.5,325.7 606.6,333.3 643.7,337.5 680.7,341.1 717.8,342.6 754.9,344.5 792.0,345.7 829.0,346.7 866.1,347.4 884.7,347.6" fill="none" stroke="#5598e7" stroke-width="2" stroke-linejoin="round" stroke-linecap="round"/>
<circle cx="884.7" cy="347.6" r="3" fill="#5598e7"/>
<polyline points="495.3,219.4 532.4,319.3 569.5,333.4 606.6,340.1 643.7,344.3 680.7,347.4 717.8,348.6 754.9,350.4 792.0,351.8 829.0,352.6 866.1,353.3 884.7,353.7" fill="none" stroke="#3987e5" stroke-width="2" stroke-linejoin="round" stroke-linecap="round"/>
<circle cx="884.7" cy="353.7" r="3" fill="#3987e5"/>
<polyline points="495.3,229.5 532.4,325.4 569.5,338.4 606.6,345.3 643.7,349.1 680.7,352.3 717.8,353.1 754.9,355.1 792.0,356.3 829.0,357.1 866.1,357.7 884.7,358.1" fill="none" stroke="#256abf" stroke-width="2" stroke-linejoin="round" stroke-linecap="round"/>
<circle cx="884.7" cy="358.1" r="3" fill="#256abf"/>
<polyline points="495.3,245.5 532.4,331.7 569.5,343.7 606.6,350.0 643.7,353.5 680.7,356.3 717.8,357.4 754.9,358.7 792.0,360.4 829.0,360.8 866.1,361.5 884.7,362.0" fill="none" stroke="#1c5cab" stroke-width="2" stroke-linejoin="round" stroke-linecap="round"/>
<circle cx="884.7" cy="362.0" r="3" fill="#1c5cab"/>
<polyline points="495.3,250.9 532.4,335.8 569.5,347.6 606.6,353.5 643.7,356.6 680.7,359.7 717.8,360.6 754.9,361.9 792.0,363.8 829.0,364.1 866.1,364.9 884.7,365.2" fill="none" stroke="#0d366b" stroke-width="2" stroke-linejoin="round" stroke-linecap="round"/>
<circle cx="884.7" cy="365.2" r="3" fill="#0d366b"/>
<text x="690.0" y="126.0" font-size="14" font-weight="600" text-anchor="middle" fill="#0b0b0b">Stage 2 — self-instruct</text>
<text x="690.0" y="418.0" font-size="11.5" text-anchor="middle" fill="#52514e">optimizer step</text>
<line x1="930.7" y1="376.4" x2="1320.0" y2="376.4" stroke="#e6e6e2" stroke-width="0.8"/>
<text x="922.7" y="380.4" font-size="11" text-anchor="end" fill="#52514e">0.70</text>
<line x1="930.7" y1="363.3" x2="1320.0" y2="363.3" stroke="#e6e6e2" stroke-width="0.8"/>
<text x="922.7" y="367.3" font-size="11" text-anchor="end" fill="#52514e">0.80</text>
<line x1="930.7" y1="350.2" x2="1320.0" y2="350.2" stroke="#e6e6e2" stroke-width="0.8"/>
<text x="922.7" y="354.2" font-size="11" text-anchor="end" fill="#52514e">0.90</text>
<line x1="930.7" y1="337.1" x2="1320.0" y2="337.1" stroke="#e6e6e2" stroke-width="0.8"/>
<text x="922.7" y="341.1" font-size="11" text-anchor="end" fill="#52514e">1.00</text>
<line x1="930.7" y1="324.0" x2="1320.0" y2="324.0" stroke="#e6e6e2" stroke-width="0.8"/>
<text x="922.7" y="328.0" font-size="11" text-anchor="end" fill="#52514e">1.10</text>
<line x1="930.7" y1="310.9" x2="1320.0" y2="310.9" stroke="#e6e6e2" stroke-width="0.8"/>
<text x="922.7" y="314.9" font-size="11" text-anchor="end" fill="#52514e">1.20</text>
<line x1="930.7" y1="297.8" x2="1320.0" y2="297.8" stroke="#e6e6e2" stroke-width="0.8"/>
<text x="922.7" y="301.8" font-size="11" text-anchor="end" fill="#52514e">1.30</text>
<line x1="930.7" y1="284.7" x2="1320.0" y2="284.7" stroke="#e6e6e2" stroke-width="0.8"/>
<text x="922.7" y="288.7" font-size="11" text-anchor="end" fill="#52514e">1.40</text>
<line x1="930.7" y1="271.6" x2="1320.0" y2="271.6" stroke="#e6e6e2" stroke-width="0.8"/>
<text x="922.7" y="275.6" font-size="11" text-anchor="end" fill="#52514e">1.50</text>
<line x1="930.7" y1="258.5" x2="1320.0" y2="258.5" stroke="#e6e6e2" stroke-width="0.8"/>
<text x="922.7" y="262.5" font-size="11" text-anchor="end" fill="#52514e">1.60</text>
<line x1="930.7" y1="245.4" x2="1320.0" y2="245.4" stroke="#e6e6e2" stroke-width="0.8"/>
<text x="922.7" y="249.4" font-size="11" text-anchor="end" fill="#52514e">1.70</text>
<line x1="930.7" y1="232.3" x2="1320.0" y2="232.3" stroke="#e6e6e2" stroke-width="0.8"/>
<text x="922.7" y="236.3" font-size="11" text-anchor="end" fill="#52514e">1.80</text>
<line x1="930.7" y1="219.2" x2="1320.0" y2="219.2" stroke="#e6e6e2" stroke-width="0.8"/>
<text x="922.7" y="223.2" font-size="11" text-anchor="end" fill="#52514e">1.90</text>
<line x1="930.7" y1="206.1" x2="1320.0" y2="206.1" stroke="#e6e6e2" stroke-width="0.8"/>
<text x="922.7" y="210.1" font-size="11" text-anchor="end" fill="#52514e">2.00</text>
<line x1="930.7" y1="193.0" x2="1320.0" y2="193.0" stroke="#e6e6e2" stroke-width="0.8"/>
<text x="922.7" y="197.0" font-size="11" text-anchor="end" fill="#52514e">2.10</text>
<line x1="930.7" y1="179.9" x2="1320.0" y2="179.9" stroke="#e6e6e2" stroke-width="0.8"/>
<text x="922.7" y="183.9" font-size="11" text-anchor="end" fill="#52514e">2.20</text>
<line x1="930.7" y1="166.7" x2="1320.0" y2="166.7" stroke="#e6e6e2" stroke-width="0.8"/>
<text x="922.7" y="170.7" font-size="11" text-anchor="end" fill="#52514e">2.30</text>
<line x1="930.7" y1="153.6" x2="1320.0" y2="153.6" stroke="#e6e6e2" stroke-width="0.8"/>
<text x="922.7" y="157.6" font-size="11" text-anchor="end" fill="#52514e">2.40</text>
<line x1="930.7" y1="140.5" x2="1320.0" y2="140.5" stroke="#e6e6e2" stroke-width="0.8"/>
<text x="922.7" y="144.5" font-size="11" text-anchor="end" fill="#52514e">2.50</text>
<text x="930.7" y="400.0" font-size="11" text-anchor="middle" fill="#52514e">0</text>
<text x="1046.1" y="400.0" font-size="11" text-anchor="middle" fill="#52514e">2k</text>
<text x="1161.6" y="400.0" font-size="11" text-anchor="middle" fill="#52514e">5k</text>
<text x="1277.0" y="400.0" font-size="11" text-anchor="middle" fill="#52514e">7k</text>
<polyline points="930.7,154.8 939.9,297.7 949.1,313.1 958.4,318.3 967.6,325.0 976.9,328.4 986.1,330.9 995.3,333.4 1004.6,335.4 1013.8,337.0 1023.0,338.7 1032.3,340.1 1041.5,341.4 1050.7,342.6 1060.0,343.5 1069.2,344.4 1078.5,345.2 1087.7,346.2 1096.9,346.9 1106.2,347.6 1115.4,348.0 1124.6,348.8 1133.9,349.3 1143.1,349.8 1152.4,350.2 1161.6,350.6 1170.8,351.0 1180.1,351.3 1189.3,351.7 1198.5,351.8 1207.8,352.3 1217.0,352.6 1226.2,352.8 1235.5,353.0 1244.7,353.2 1254.0,353.4 1263.2,353.6 1272.4,353.7 1281.7,353.9 1290.9,354.0 1300.1,354.1 1309.4,354.2 1318.6,354.2 1320.0,354.2" fill="none" stroke="#86b6ef" stroke-width="2" stroke-linejoin="round" stroke-linecap="round"/>
<circle cx="1320.0" cy="354.2" r="3" fill="#86b6ef"/>
<polyline points="930.7,203.5 939.9,313.5 949.1,325.5 958.4,331.3 967.6,335.1 976.9,337.8 986.1,340.2 995.3,342.1 1004.6,343.6 1013.8,345.1 1023.0,346.1 1032.3,347.4 1041.5,348.5 1050.7,349.6 1060.0,350.3 1069.2,351.3 1078.5,351.8 1087.7,352.6 1096.9,353.2 1106.2,353.7 1115.4,354.3 1124.6,354.9 1133.9,355.2 1143.1,355.7 1152.4,356.1 1161.6,356.4 1170.8,356.8 1180.1,357.0 1189.3,357.3 1198.5,357.5 1207.8,357.8 1217.0,358.1 1226.2,358.3 1235.5,358.5 1244.7,358.7 1254.0,358.9 1263.2,359.0 1272.4,359.2 1281.7,359.3 1290.9,359.4 1300.1,359.4 1309.4,359.5 1318.6,359.6 1320.0,359.6" fill="none" stroke="#5598e7" stroke-width="2" stroke-linejoin="round" stroke-linecap="round"/>
<circle cx="1320.0" cy="359.6" r="3" fill="#5598e7"/>
<polyline points="930.7,207.9 939.9,317.0 949.1,328.3 958.4,334.1 967.6,337.0 976.9,340.2 986.1,342.6 995.3,344.2 1004.6,345.9 1013.8,347.4 1023.0,348.5 1032.3,349.6 1041.5,350.6 1050.7,351.7 1060.0,352.3 1069.2,353.3 1078.5,353.8 1087.7,354.5 1096.9,355.3 1106.2,355.7 1115.4,356.3 1124.6,356.8 1133.9,357.1 1143.1,357.6 1152.4,357.9 1161.6,358.2 1170.8,358.6 1180.1,358.8 1189.3,359.2 1198.5,359.4 1207.8,359.6 1217.0,360.0 1226.2,360.2 1235.5,360.4 1244.7,360.5 1254.0,360.7 1263.2,360.9 1272.4,361.1 1281.7,361.1 1290.9,361.2 1300.1,361.3 1309.4,361.4 1318.6,361.5 1320.0,361.5" fill="none" stroke="#3987e5" stroke-width="2" stroke-linejoin="round" stroke-linecap="round"/>
<circle cx="1320.0" cy="361.5" r="3" fill="#3987e5"/>
<polyline points="930.7,217.9 939.9,320.4 949.1,331.1 958.4,336.3 967.6,340.0 976.9,342.5 986.1,344.5 995.3,346.4 1004.6,347.7 1013.8,349.1 1023.0,350.2 1032.3,351.5 1041.5,352.3 1050.7,353.4 1060.0,354.0 1069.2,355.0 1078.5,355.5 1087.7,356.3 1096.9,356.9 1106.2,357.4 1115.4,357.9 1124.6,358.4 1133.9,358.7 1143.1,359.2 1152.4,359.5 1161.6,359.8 1170.8,360.2 1180.1,360.3 1189.3,360.7 1198.5,360.9 1207.8,361.2 1217.0,361.5 1226.2,361.6 1235.5,361.9 1244.7,362.1 1254.0,362.2 1263.2,362.3 1272.4,362.5 1281.7,362.6 1290.9,362.7 1300.1,362.8 1309.4,362.8 1318.6,362.9 1320.0,362.9" fill="none" stroke="#256abf" stroke-width="2" stroke-linejoin="round" stroke-linecap="round"/>
<circle cx="1320.0" cy="362.9" r="3" fill="#256abf"/>
<polyline points="930.7,224.5 939.9,323.2 949.1,333.0 958.4,338.5 967.6,341.8 976.9,344.2 986.1,346.3 995.3,348.1 1004.6,349.5 1013.8,350.7 1023.0,351.8 1032.3,352.9 1041.5,353.4 1050.7,354.8 1060.0,355.6 1069.2,356.4 1078.5,356.9 1087.7,357.6 1096.9,358.2 1106.2,358.8 1115.4,359.2 1124.6,359.7 1133.9,360.1 1143.1,360.4 1152.4,360.8 1161.6,361.1 1170.8,361.4 1180.1,361.6 1189.3,362.0 1198.5,362.1 1207.8,362.5 1217.0,362.8 1226.2,362.9 1235.5,363.1 1244.7,363.3 1254.0,363.5 1263.2,363.6 1272.4,363.8 1281.7,363.8 1290.9,364.0 1300.1,364.0 1309.4,364.1 1318.6,364.2 1320.0,364.2" fill="none" stroke="#1c5cab" stroke-width="2" stroke-linejoin="round" stroke-linecap="round"/>
<circle cx="1320.0" cy="364.2" r="3" fill="#1c5cab"/>
<polyline points="930.7,223.1 939.9,324.2 949.1,334.8 958.4,339.9 967.6,343.5 976.9,345.5 986.1,347.7 995.3,349.4 1004.6,350.0 1013.8,351.8 1023.0,353.1 1032.3,354.2 1041.5,355.1 1050.7,356.0 1060.0,356.7 1069.2,357.5 1078.5,358.0 1087.7,358.7 1096.9,359.3 1106.2,359.7 1115.4,360.3 1124.6,360.8 1133.9,361.1 1143.1,361.4 1152.4,361.8 1161.6,362.1 1170.8,362.5 1180.1,362.7 1189.3,363.0 1198.5,363.2 1207.8,363.5 1217.0,363.8 1226.2,363.9 1235.5,364.1 1244.7,364.3 1254.0,364.5 1263.2,364.6 1272.4,364.8 1281.7,364.8 1290.9,365.0 1300.1,365.0 1309.4,365.1 1318.6,365.2 1320.0,365.2" fill="none" stroke="#0d366b" stroke-width="2" stroke-linejoin="round" stroke-linecap="round"/>
<circle cx="1320.0" cy="365.2" r="3" fill="#0d366b"/>
<text x="1125.3" y="126.0" font-size="14" font-weight="600" text-anchor="middle" fill="#0b0b0b">Stage 3 — Tulu</text>
<text x="1125.3" y="418.0" font-size="11.5" text-anchor="middle" fill="#52514e">optimizer step</text>
<text x="18" y="260.0" font-size="12" fill="#52514e" transform="rotate(-90 18 260.0)" text-anchor="middle">validation loss</text>
<text x="60" y="474.0" font-size="16" font-weight="700" fill="#0b0b0b">Best validation loss falls monotonically as the knowledge cutoff moves forward</text>
<line x1="60.0" y1="686.5" x2="1190.0" y2="686.5" stroke="#e6e6e2" stroke-width="0.8"/>
<text x="52.0" y="690.5" font-size="11" text-anchor="end" fill="#52514e">0.80</text>
<line x1="60.0" y1="659.5" x2="1190.0" y2="659.5" stroke="#e6e6e2" stroke-width="0.8"/>
<text x="52.0" y="663.5" font-size="11" text-anchor="end" fill="#52514e">0.90</text>
<line x1="60.0" y1="632.6" x2="1190.0" y2="632.6" stroke="#e6e6e2" stroke-width="0.8"/>
<text x="52.0" y="636.6" font-size="11" text-anchor="end" fill="#52514e">1.00</text>
<line x1="60.0" y1="605.7" x2="1190.0" y2="605.7" stroke="#e6e6e2" stroke-width="0.8"/>
<text x="52.0" y="609.7" font-size="11" text-anchor="end" fill="#52514e">1.10</text>
<line x1="60.0" y1="578.8" x2="1190.0" y2="578.8" stroke="#e6e6e2" stroke-width="0.8"/>
<text x="52.0" y="582.8" font-size="11" text-anchor="end" fill="#52514e">1.20</text>
<line x1="60.0" y1="551.8" x2="1190.0" y2="551.8" stroke="#e6e6e2" stroke-width="0.8"/>
<text x="52.0" y="555.8" font-size="11" text-anchor="end" fill="#52514e">1.30</text>
<line x1="60.0" y1="524.9" x2="1190.0" y2="524.9" stroke="#e6e6e2" stroke-width="0.8"/>
<text x="52.0" y="528.9" font-size="11" text-anchor="end" fill="#52514e">1.40</text>
<line x1="60.0" y1="498.0" x2="1190.0" y2="498.0" stroke="#e6e6e2" stroke-width="0.8"/>
<text x="52.0" y="502.0" font-size="11" text-anchor="end" fill="#52514e">1.50</text>
<text x="60.0" y="732.0" font-size="12.5" font-weight="600" text-anchor="start" fill="#0b0b0b">Stage 1 — scratch</text>
<text x="625.0" y="732.0" font-size="12.5" font-weight="600" text-anchor="middle" fill="#0b0b0b">Stage 2 — self-instruct</text>
<text x="1190.0" y="732.0" font-size="12.5" font-weight="600" text-anchor="end" fill="#0b0b0b">Stage 3 — Tulu</text>
<polyline points="60.0,511.7 625.0,549.7 1190.0,667.9" fill="none" stroke="#86b6ef" stroke-width="2.4" stroke-linejoin="round"/>
<circle cx="60.0" cy="511.7" r="4.5" fill="#86b6ef"/>
<circle cx="625.0" cy="549.7" r="4.5" fill="#86b6ef"/>
<circle cx="1190.0" cy="667.9" r="4.5" fill="#86b6ef"/>
<polyline points="60.0,576.1 625.0,583.4 1190.0,679.0" fill="none" stroke="#5598e7" stroke-width="2.4" stroke-linejoin="round"/>
<circle cx="60.0" cy="576.1" r="4.5" fill="#5598e7"/>
<circle cx="625.0" cy="583.4" r="4.5" fill="#5598e7"/>
<circle cx="1190.0" cy="679.0" r="4.5" fill="#5598e7"/>
<polyline points="60.0,574.8 625.0,595.2 1190.0,682.8" fill="none" stroke="#3987e5" stroke-width="2.4" stroke-linejoin="round"/>
<circle cx="60.0" cy="574.8" r="4.5" fill="#3987e5"/>
<circle cx="625.0" cy="595.2" r="4.5" fill="#3987e5"/>
<circle cx="1190.0" cy="682.8" r="4.5" fill="#3987e5"/>
<polyline points="60.0,579.8 625.0,603.7 1190.0,685.8" fill="none" stroke="#256abf" stroke-width="2.4" stroke-linejoin="round"/>
<circle cx="60.0" cy="579.8" r="4.5" fill="#256abf"/>
<circle cx="625.0" cy="603.7" r="4.5" fill="#256abf"/>
<circle cx="1190.0" cy="685.8" r="4.5" fill="#256abf"/>
<polyline points="60.0,585.5 625.0,611.0 1190.0,688.3" fill="none" stroke="#1c5cab" stroke-width="2.4" stroke-linejoin="round"/>
<circle cx="60.0" cy="585.5" r="4.5" fill="#1c5cab"/>
<circle cx="625.0" cy="611.0" r="4.5" fill="#1c5cab"/>
<circle cx="1190.0" cy="688.3" r="4.5" fill="#1c5cab"/>
<polyline points="60.0,595.7 625.0,617.2 1190.0,690.4" fill="none" stroke="#0d366b" stroke-width="2.4" stroke-linejoin="round"/>
<circle cx="60.0" cy="595.7" r="4.5" fill="#0d366b"/>
<circle cx="625.0" cy="617.2" r="4.5" fill="#0d366b"/>
<circle cx="1190.0" cy="690.4" r="4.5" fill="#0d366b"/>
<path d="M1195.0,667.9 L1214.0,655.9" fill="none" stroke="#86b6ef" stroke-width="1" opacity="0.55"/>
<text x="1220.0" y="659.9" font-size="12.5" font-weight="700" fill="#86b6ef">1999: 0.869</text>
<path d="M1195.0,679.0 L1214.0,675.9" fill="none" stroke="#5598e7" stroke-width="1" opacity="0.55"/>
<text x="1220.0" y="679.9" font-size="12.5" font-weight="700" fill="#5598e7">2005: 0.828</text>
<path d="M1195.0,682.8 L1214.0,695.9" fill="none" stroke="#3987e5" stroke-width="1" opacity="0.55"/>
<text x="1220.0" y="699.9" font-size="12.5" font-weight="700" fill="#3987e5">2010: 0.814</text>
<path d="M1195.0,685.8 L1214.0,715.9" fill="none" stroke="#256abf" stroke-width="1" opacity="0.55"/>
<text x="1220.0" y="719.9" font-size="12.5" font-weight="700" fill="#256abf">2015: 0.803</text>
<path d="M1195.0,688.3 L1214.0,735.9" fill="none" stroke="#1c5cab" stroke-width="1" opacity="0.55"/>
<text x="1220.0" y="739.9" font-size="12.5" font-weight="700" fill="#1c5cab">2020: 0.793</text>
<path d="M1195.0,690.4 L1214.0,755.9" fill="none" stroke="#0d366b" stroke-width="1" opacity="0.55"/>
<text x="1220.0" y="759.9" font-size="12.5" font-weight="700" fill="#0d366b">2024: 0.785</text>
<text x="18" y="603.0" font-size="12" fill="#52514e" transform="rotate(-90 18 603.0)" text-anchor="middle">best validation loss</text>
</svg>